<?xml version="1.0" encoding="UTF-8" standalone="no"?>

<svg
   version="1.1"
   id="svg2"
   width="287.23999"
   height="37.799999"
   viewBox="0 0 287.23999 37.799999"
   xmlns="http://www.w3.org/2000/svg"
   xmlns:svg="http://www.w3.org/2000/svg">
  <defs
     id="defs6" />
  <g
     id="g8"
     transform="matrix(1.3333333,0,0,-1.3333333,0,37.8)">
    <g
       id="g10"
       transform="scale(0.1)">
      <path
         d="M 283.469,0 H 0 V 283.469 H 283.469 V 0"
         style="fill:#80cc28;fill-opacity:1;fill-rule:nonzero;stroke:none"
         id="path12" />
      <path
         d="m 259.984,269.293 -79.918,-77.375 3.348,65.156 c 22.84,6.754 62.606,6.727 76.57,12.219"
         style="fill:#ffffff;fill-opacity:1;fill-rule:nonzero;stroke:none"
         id="path14" />
      <path
         d="m 124.68,139.07 41.851,40.172 2.91,74.879 c -14.351,-2.094 -35.832,-9.234 -41.863,-12.234 0,0 -2.473,-103.235 -2.898,-102.817"
         style="fill:#00adef;fill-opacity:1;fill-rule:nonzero;stroke:none"
         id="path16" />
      <path
         d="m 70.9922,88.7695 c 0,0 39.3128,35.9375 38.8948,36.3595 -0.422,0.418 1.617,109.992 1.617,109.992 C 95.0391,226.504 84.6523,220.348 75.1328,212.297 74.6875,211.914 70.9922,88.7695 70.9922,88.7695"
         style="fill:#f68712;fill-opacity:1;fill-rule:nonzero;stroke:none"
         id="path18" />
      <path
         d="M 25.7383,45.2148 57.4531,75.2344 60.7617,199.613 C 34.9609,174.668 -6.02344,114.199 25.7383,45.2148"
         style="fill:#fff200;fill-opacity:1;fill-rule:nonzero;stroke:none"
         id="path20" />
      <path
         d="m 269.285,259.977 -77.359,-79.907 65.144,3.336 c 6.758,22.848 6.735,62.621 12.215,76.571"
         style="fill:#176fc1;fill-opacity:1;fill-rule:nonzero;stroke:none"
         id="path22" />
      <path
         d="m 139.066,124.688 40.172,41.851 74.887,2.91 c -2.105,-14.371 -9.23,-35.84 -12.25,-41.871 0,0 -103.223,-2.469 -102.809,-2.89"
         style="fill:#ffffff;fill-opacity:1;fill-rule:nonzero;stroke:none"
         id="path24" />
      <path
         d="m 88.7617,70.9883 c 0,0 35.9333,39.3247 36.3553,38.8947 0.43,-0.43 110,1.621 110,1.621 C 226.504,95.0391 220.336,84.6563 212.297,75.1367 211.914,74.6875 88.7617,70.9883 88.7617,70.9883"
         style="fill:#ffffff;fill-opacity:1;fill-rule:nonzero;stroke:none"
         id="path26" />
      <path
         d="M 45.2227,25.7422 75.2344,57.4609 199.609,60.7617 C 174.668,34.9609 114.203,-6.02344 45.2227,25.7422"
         style="fill:#ffffff;fill-opacity:1;fill-rule:nonzero;stroke:none"
         id="path28" />
      <path
         d="m 431.723,239.977 c -6.825,8.914 -18.078,13.886 -29.168,13.886 -27.102,0 -45,-21.773 -45,-49.375 0,-25.543 16.871,-47.32 45,-47.32 13.816,0 24.394,6.16 31.547,16.285 l 13.812,-10.445 c -3.578,-4.996 -18.074,-21.274 -45.695,-21.274 -38.352,0 -62.063,32.243 -62.063,62.754 0,37.719 25.739,64.805 62.914,64.805 15.852,0 32.571,-5.996 42.289,-18.863 l -13.636,-10.453"
         style="fill:#176fc1;fill-opacity:1;fill-rule:nonzero;stroke:none"
         id="path30" />
      <path
         d="m 467.754,266.207 h 77.914 v -15.43 h -61.543 v -36.172 h 57.281 v -15.433 h -57.281 v -38.93 h 64.609 V 144.82 h -80.98 v 121.387"
         style="fill:#176fc1;fill-opacity:1;fill-rule:nonzero;stroke:none"
         id="path32" />
      <path
         d="m 588.355,212.719 h 21.485 c 12.957,0 25.918,3.086 25.918,19.547 0,16.449 -12.961,19.543 -25.918,19.543 h -21.485 z m -16.375,53.488 h 42.458 c 30.859,0 38.707,-18.684 38.707,-33.941 0,-15.258 -7.848,-33.95 -38.707,-33.95 H 588.355 V 144.82 H 571.98 v 121.387"
         style="fill:#176fc1;fill-opacity:1;fill-rule:nonzero;stroke:none"
         id="path34" />
      <path
         d="m 673.137,266.207 h 16.375 V 160.242 h 55.41 V 144.82 h -71.785 v 121.387"
         style="fill:#176fc1;fill-opacity:1;fill-rule:nonzero;stroke:none"
         id="path36" />
      <path
         d="m 845.922,189.23 -22.504,55.715 H 823.07 L 800.219,189.23 Z m -29.328,76.977 h 14.828 L 883.086,144.82 h -19.102 l -12.093,30 H 794.43 l -11.93,-30 h -19.102 l 53.196,121.387"
         style="fill:#176fc1;fill-opacity:1;fill-rule:nonzero;stroke:none"
         id="path38" />
      <path
         d="m 910.945,170.188 c 5.797,-8.911 15.864,-13.02 25.575,-13.02 10.742,0 24.039,6.855 24.039,20.23 0,27.946 -59.508,10.629 -59.508,57.95 0,14.226 11.945,33.945 40.922,33.945 13.129,0 25.746,-2.738 34.781,-13.883 l -13.301,-12.176 c -4.078,6.34 -12.101,10.629 -21.48,10.629 -18.067,0 -23.516,-10.968 -23.516,-18.515 0,-30.688 59.496,-12.348 59.496,-56.067 0,-23.488 -18.754,-37.547 -41.945,-37.547 -15.516,0 -30.344,5.313 -38.528,16.801 l 13.465,11.653"
         style="fill:#176fc1;fill-opacity:1;fill-rule:nonzero;stroke:none"
         id="path40" />
      <path
         d="m 406.441,28.1289 c -7.062,-9.9492 -16.757,-13.9531 -27.714,-13.9531 -22.766,0 -38.571,16.8789 -38.571,40.25 0,23.3672 15.805,40.2422 38.571,40.2422 10.117,0 19.179,-3.461 25.711,-12.0078 l -5.692,-4.8672 c -4.637,7.1406 -12.539,10.3867 -20.019,10.3867 -19.497,0 -31.618,-14.7188 -31.618,-33.7539 0,-19.043 12.121,-33.7578 31.618,-33.7578 7.48,0 16.753,3.6797 22.019,11.9023 l 5.695,-4.4414"
         style="fill:#176fc1;fill-opacity:1;fill-rule:nonzero;stroke:none"
         id="path42" />
      <path
         d="m 418.496,97.9141 h 6.317 v -81.793 h -6.317 v 81.793"
         style="fill:#176fc1;fill-opacity:1;fill-rule:nonzero;stroke:none"
         id="path44" />
      <path
         d="m 483.949,30.1875 c 0,-3.6719 0.528,-11.4727 0.528,-14.0664 h -6.325 c -0.105,3.6797 -0.207,7.7969 -0.418,8.7656 h -0.316 c -2.531,-5.5156 -8.75,-10.0625 -16.656,-10.0625 -15.172,0 -18.543,10.6016 -18.543,21.5274 v 29.7578 h 6.32 V 36.6797 c 0,-8.1133 2.215,-16.0117 12.223,-16.0117 9.379,0 16.867,6.7109 16.867,20.4453 v 24.9961 h 6.32 V 30.1875"
         style="fill:#176fc1;fill-opacity:1;fill-rule:nonzero;stroke:none"
         id="path46" />
      <path
         d="m 501.48,28.8867 c 2.637,-5.2969 8.43,-8.2187 14.122,-8.2187 5.476,0 11.171,3.4648 11.171,9.1914 0,13.7461 -28.882,4.1172 -28.882,23.1523 0,9.7383 8.648,14.3946 16.656,14.3946 7.902,0 14.012,-3.0274 17.176,-9.4141 l -5.688,-3.4609 c -2.426,4.5468 -5.797,7.0312 -11.488,7.0312 -4.531,0 -10.328,-2.8086 -10.328,-8.0039 0,-13.5313 28.871,-3.0313 28.871,-23.2617 0,-10.2813 -8.324,-15.4727 -17.598,-15.4727 -8.324,0 -15.804,3.2461 -19.597,10.1641 l 5.585,3.8984"
         style="fill:#176fc1;fill-opacity:1;fill-rule:nonzero;stroke:none"
         id="path48" />
      <path
         d="M 570.102,60.2656 H 556.195 V 27.6992 c 0,-4.4375 2.528,-7.0312 6.743,-7.0312 2.421,0 4.953,0.7617 7.164,1.7343 l 0.527,-5.8437 c -2.313,-0.8633 -5.793,-1.7344 -8.219,-1.7344 -9.058,0 -12.539,5.7383 -12.539,12.875 v 32.5664 h -10.535 v 5.8438 h 10.535 v 14.3945 h 6.324 V 66.1094 h 13.907 v -5.8438"
         style="fill:#176fc1;fill-opacity:1;fill-rule:nonzero;stroke:none"
         id="path50" />
      <path
         d="m 619.547,45.3359 c 0,8.875 -7.481,16.2266 -16.859,16.2266 -13.809,0 -17.708,-13.6328 -17.708,-16.2266 z m 4.844,-19.8046 c -4.953,-7.5665 -12.434,-10.7071 -21.075,-10.7071 -14.859,0 -24.66,10.9219 -24.66,26.4024 0,14.9257 10.114,26.1797 24.34,26.1797 14.969,0 22.867,-11.7969 22.867,-23.3672 V 39.4922 H 584.98 c 0,-5.4102 3.688,-18.8242 18.442,-18.8242 6.426,0 13.176,3.4648 16.336,8.875 l 4.633,-4.0117"
         style="fill:#176fc1;fill-opacity:1;fill-rule:nonzero;stroke:none"
         id="path52" />
      <path
         d="m 640.023,52.043 c 0,3.6797 -0.527,11.4648 -0.527,14.0664 h 6.324 c 0.11,-3.6836 0.211,-7.7891 0.418,-8.7696 3.164,5.8438 8.227,10.0665 15.496,10.0665 1.262,0 2.426,-0.2188 3.692,-0.543 l -0.738,-6.3789 c -0.95,0.3203 -1.797,0.4297 -2.426,0.4297 -10.961,0 -15.914,-7.7891 -15.914,-17.5235 V 16.1211 h -6.325 V 52.043"
         style="fill:#176fc1;fill-opacity:1;fill-rule:nonzero;stroke:none"
         id="path54" />
      <path
         d="m 725.414,20.668 c 11.914,0 19.289,9.1914 19.289,20.4453 0,11.25 -7.375,20.4492 -19.289,20.4492 -11.902,0 -19.281,-9.1992 -19.281,-20.4492 0,-11.2539 7.379,-20.4453 19.281,-20.4453 z m 0,46.7383 c 14.969,0 25.609,-11.0391 25.609,-26.293 0,-15.2539 -10.64,-26.2891 -25.609,-26.2891 -14.961,0 -25.605,11.0352 -25.605,26.2891 0,15.2539 10.644,26.293 25.605,26.293"
         style="fill:#176fc1;fill-opacity:1;fill-rule:nonzero;stroke:none"
         id="path56" />
      <path
         d="m 768.766,60.2656 h -10.118 v 5.8438 h 10.118 v 16.3359 c 0,12.8711 8.324,16.7695 14.539,16.7695 3.058,0 5.371,-0.4296 7.277,-1.3007 l -1.269,-5.625 c -1.477,0.7578 -3.266,1.0859 -5.696,1.0859 -5.797,0 -8.527,-4.332 -8.527,-13.3125 V 66.1094 h 11.379 V 60.2656 H 775.09 V 16.1211 h -6.324 v 44.1445"
         style="fill:#176fc1;fill-opacity:1;fill-rule:nonzero;stroke:none"
         id="path58" />
      <path
         d="m 825.598,92.7188 h 45.629 V 86.2344 H 832.555 V 58.9688 h 36.25 v -6.4922 h -36.25 V 22.6172 h 40.355 v -6.4961 h -47.312 v 76.5977"
         style="fill:#176fc1;fill-opacity:1;fill-rule:nonzero;stroke:none"
         id="path60" />
      <path
         d="m 898.762,43.1758 -17.383,22.9336 h 8.113 L 902.98,47.168 916.363,66.1094 h 7.899 L 907.09,43.1758 927.953,16.1211 H 919.73 L 902.77,38.7383 886.117,16.1211 h -7.586 l 20.231,27.0547"
         style="fill:#176fc1;fill-opacity:1;fill-rule:nonzero;stroke:none"
         id="path62" />
      <path
         d="m 977.828,23.4766 c -4.742,-5.8399 -10.957,-8.6524 -17.918,-8.6524 -14.965,0 -25.609,11.0352 -25.609,26.2891 0,15.2539 10.644,26.293 25.609,26.293 7.063,0 13.387,-3.1368 18.133,-8.6524 l -5.059,-3.8984 c -3.691,4.1133 -8.011,6.707 -13.074,6.707 -11.902,0 -19.281,-9.1992 -19.281,-20.4492 0,-11.2539 7.379,-20.4453 19.281,-20.4453 5.27,0 9.801,2.8086 13.074,6.9258 l 4.844,-4.1172"
         style="fill:#176fc1;fill-opacity:1;fill-rule:nonzero;stroke:none"
         id="path64" />
      <path
         d="m 1025.91,45.3359 c 0,8.875 -7.48,16.2266 -16.86,16.2266 -13.808,0 -17.706,-13.6328 -17.706,-16.2266 z m 4.85,-19.8046 c -4.95,-7.5665 -12.44,-10.7071 -21.08,-10.7071 -14.856,0 -24.66,10.9219 -24.66,26.4024 0,14.9257 10.117,26.1797 24.35,26.1797 14.96,0 22.86,-11.7969 22.86,-23.3672 v -4.5469 h -40.886 c 0,-5.4102 3.691,-18.8242 18.446,-18.8242 6.43,0 13.17,3.4648 16.33,8.875 l 4.64,-4.0117"
         style="fill:#176fc1;fill-opacity:1;fill-rule:nonzero;stroke:none"
         id="path66" />
      <path
         d="m 1047.44,97.9141 h 6.32 v -81.793 h -6.32 v 81.793"
         style="fill:#176fc1;fill-opacity:1;fill-rule:nonzero;stroke:none"
         id="path68" />
      <path
         d="m 1072.74,97.9141 h 6.33 v -81.793 h -6.33 v 81.793"
         style="fill:#176fc1;fill-opacity:1;fill-rule:nonzero;stroke:none"
         id="path70" />
      <path
         d="m 1135.15,45.3359 c 0,8.875 -7.49,16.2266 -16.86,16.2266 -13.81,0 -17.71,-13.6328 -17.71,-16.2266 z M 1140,25.5313 c -4.96,-7.5665 -12.45,-10.7071 -21.08,-10.7071 -14.86,0 -24.67,10.9219 -24.67,26.4024 0,14.9257 10.12,26.1797 24.35,26.1797 14.96,0 22.86,-11.7969 22.86,-23.3672 v -4.5469 h -40.88 c 0,-5.4102 3.69,-18.8242 18.44,-18.8242 6.43,0 13.17,3.4648 16.34,8.875 l 4.64,-4.0117"
         style="fill:#176fc1;fill-opacity:1;fill-rule:nonzero;stroke:none"
         id="path72" />
      <path
         d="m 1155.62,52.043 c 0,3.6797 -0.53,11.4648 -0.53,14.0664 h 6.33 c 0.1,-3.6836 0.21,-7.7891 0.42,-8.7696 h 0.31 c 2.53,5.5235 8.75,10.0665 16.65,10.0665 15.18,0 18.55,-10.6055 18.55,-21.5313 V 16.1211 h -6.32 v 29.4297 c 0,8.1172 -2.22,16.0117 -12.23,16.0117 -9.38,0 -16.86,-6.707 -16.86,-20.4492 V 16.1211 h -6.32 V 52.043"
         style="fill:#176fc1;fill-opacity:1;fill-rule:nonzero;stroke:none"
         id="path74" />
      <path
         d="m 1255.03,23.4766 c -4.75,-5.8399 -10.96,-8.6524 -17.92,-8.6524 -14.96,0 -25.61,11.0352 -25.61,26.2891 0,15.2539 10.65,26.293 25.61,26.293 7.06,0 13.39,-3.1368 18.13,-8.6524 l -5.06,-3.8984 c -3.69,4.1133 -8.01,6.707 -13.07,6.707 -11.91,0 -19.28,-9.1992 -19.28,-20.4492 0,-11.2539 7.37,-20.4453 19.28,-20.4453 5.27,0 9.8,2.8086 13.07,6.9258 l 4.85,-4.1172"
         style="fill:#176fc1;fill-opacity:1;fill-rule:nonzero;stroke:none"
         id="path76" />
      <path
         d="m 1303.11,45.3359 c 0,8.875 -7.48,16.2266 -16.86,16.2266 -13.81,0 -17.71,-13.6328 -17.71,-16.2266 z m 4.84,-19.8046 c -4.95,-7.5665 -12.43,-10.7071 -21.07,-10.7071 -14.86,0 -24.66,10.9219 -24.66,26.4024 0,14.9257 10.11,26.1797 24.34,26.1797 14.97,0 22.87,-11.7969 22.87,-23.3672 v -4.5469 h -40.89 c 0,-5.4102 3.69,-18.8242 18.45,-18.8242 6.42,0 13.17,3.4648 16.33,8.875 l 4.63,-4.0117"
         style="fill:#176fc1;fill-opacity:1;fill-rule:nonzero;stroke:none"
         id="path78" />
      <path
         d="m 1373.87,20.668 c 11.91,0 19.28,9.1914 19.28,20.4453 0,11.25 -7.37,20.4492 -19.28,20.4492 -11.91,0 -19.29,-9.1992 -19.29,-20.4492 0,-11.2539 7.38,-20.4453 19.29,-20.4453 z m 0,46.7383 c 14.96,0 25.61,-11.0391 25.61,-26.293 0,-15.2539 -10.65,-26.2891 -25.61,-26.2891 -14.97,0 -25.61,11.0352 -25.61,26.2891 0,15.2539 10.64,26.293 25.61,26.293"
         style="fill:#176fc1;fill-opacity:1;fill-rule:nonzero;stroke:none"
         id="path80" />
      <path
         d="m 1413.63,52.043 c 0,3.6797 -0.52,11.4648 -0.52,14.0664 h 6.32 c 0.1,-3.6836 0.21,-7.7891 0.42,-8.7696 h 0.32 c 2.52,5.5235 8.74,10.0665 16.65,10.0665 15.17,0 18.55,-10.6055 18.55,-21.5313 V 16.1211 h -6.33 v 29.4297 c 0,8.1172 -2.21,16.0117 -12.22,16.0117 -9.38,0 -16.86,-6.707 -16.86,-20.4492 V 16.1211 h -6.33 V 52.043"
         style="fill:#176fc1;fill-opacity:1;fill-rule:nonzero;stroke:none"
         id="path82" />
      <path
         d="m 1508.42,58.9688 h 15.8 c 7.91,0 15.81,3.457 15.81,13.5195 0,9.8476 -8.21,13.7461 -16.23,13.7461 h -15.38 z m -6.96,33.75 h 21.5 c 10.54,0 24.03,-4.2188 24.03,-20.2305 0,-13.8438 -10.75,-20.0117 -22.45,-20.0117 h -16.12 V 16.1211 h -6.96 v 76.5977"
         style="fill:#176fc1;fill-opacity:1;fill-rule:nonzero;stroke:none"
         id="path84" />
      <path
         d="m 1561.25,97.9141 h 6.32 v -81.793 h -6.32 v 81.793"
         style="fill:#176fc1;fill-opacity:1;fill-rule:nonzero;stroke:none"
         id="path86" />
      <path
         d="m 1610.68,41.2266 c -10.54,0 -21.08,-2.711 -21.08,-11.2539 0,-6.168 5.8,-9.3047 11.07,-9.3047 13.49,0 16.97,8.875 16.97,17.2031 v 3.3555 z m 12.65,-4.1133 c 0,-9.7344 0.21,-15.2539 0.95,-20.9922 h -5.91 c -0.42,2.4922 -0.63,5.3086 -0.63,8.1133 h -0.21 c -3.58,-6.3789 -8.85,-9.4102 -17.07,-9.4102 -8.33,0 -17.18,4.2188 -17.18,14.8203 0,15.2578 17.39,16.7657 26.98,16.7657 h 7.38 v 3.0351 c 0,8.6524 -5.91,12.1172 -13.7,12.1172 -5.69,0 -10.54,-1.8359 -14.86,-5.625 l -3.69,4.4375 c 4.63,4.5469 12.23,7.0313 18.55,7.0313 11.8,0 19.39,-5.4102 19.39,-18.0665 V 37.1133"
         style="fill:#176fc1;fill-opacity:1;fill-rule:nonzero;stroke:none"
         id="path88" />
      <path
         d="m 1640.22,52.043 c 0,3.6797 -0.53,11.4648 -0.53,14.0664 h 6.33 c 0.1,-3.6836 0.21,-7.7891 0.42,-8.7696 h 0.31 c 2.53,5.5235 8.75,10.0665 16.65,10.0665 15.18,0 18.55,-10.6055 18.55,-21.5313 V 16.1211 h -6.32 v 29.4297 c 0,8.1172 -2.22,16.0117 -12.23,16.0117 -9.37,0 -16.86,-6.707 -16.86,-20.4492 V 16.1211 h -6.32 V 52.043"
         style="fill:#176fc1;fill-opacity:1;fill-rule:nonzero;stroke:none"
         id="path90" />
      <path
         d="m 1722.66,60.2656 h -13.91 V 27.6992 c 0,-4.4375 2.53,-7.0312 6.74,-7.0312 2.43,0 4.95,0.7617 7.17,1.7343 l 0.53,-5.8437 c -2.32,-0.8633 -5.8,-1.7344 -8.22,-1.7344 -9.07,0 -12.54,5.7383 -12.54,12.875 v 32.5664 h -10.54 v 5.8438 h 10.54 v 14.3945 h 6.32 V 66.1094 h 13.91 v -5.8438"
         style="fill:#176fc1;fill-opacity:1;fill-rule:nonzero;stroke:none"
         id="path92" />
      <path
         d="m 1765.17,30.2969 c 3.68,-6.3789 9.69,-9.6289 17.07,-9.6289 9.38,0 16.75,5.8476 16.75,15.0351 0,21.4219 -38.46,8.875 -38.46,37.9727 0,13.6406 11.38,20.9922 23.92,20.9922 8.11,0 15.28,-2.8086 20.34,-9.6289 l -6.01,-4.4336 c -3.48,4.9804 -8.11,7.5742 -14.54,7.5742 -8.96,0 -16.75,-4.7617 -16.75,-14.5039 0,-23.0391 38.46,-9.1914 38.46,-37.9727 0,-13.8437 -11.07,-21.5273 -23.19,-21.5273 -9.8,0 -18.44,3.2461 -24.23,11.5703 l 6.64,4.5508"
         style="fill:#176fc1;fill-opacity:1;fill-rule:nonzero;stroke:none"
         id="path94" />
      <path
         d="m 1860.78,23.4766 c -4.74,-5.8399 -10.96,-8.6524 -17.91,-8.6524 -14.97,0 -25.61,11.0352 -25.61,26.2891 0,15.2539 10.64,26.293 25.61,26.293 7.06,0 13.38,-3.1368 18.12,-8.6524 l -5.06,-3.8984 c -3.69,4.1133 -8.01,6.707 -13.06,6.707 -11.92,0 -19.29,-9.1992 -19.29,-20.4492 0,-11.2539 7.37,-20.4453 19.29,-20.4453 5.26,0 9.79,2.8086 13.06,6.9258 l 4.85,-4.1172"
         style="fill:#176fc1;fill-opacity:1;fill-rule:nonzero;stroke:none"
         id="path96" />
      <path
         d="m 1871.77,66.1094 h 6.32 V 16.1211 h -6.32 z m 3.16,24.664 c 2.63,0 4.74,-2.1601 4.74,-4.8671 0,-2.7032 -2.11,-4.8711 -4.74,-4.8711 -2.64,0 -4.74,2.1679 -4.74,4.8711 0,2.707 2.1,4.8671 4.74,4.8671"
         style="fill:#176fc1;fill-opacity:1;fill-rule:nonzero;stroke:none"
         id="path98" />
      <path
         d="m 1934.17,45.3359 c 0,8.875 -7.49,16.2266 -16.87,16.2266 -13.8,0 -17.7,-13.6328 -17.7,-16.2266 z m 4.84,-19.8046 c -4.95,-7.5665 -12.43,-10.7071 -21.07,-10.7071 -14.86,0 -24.66,10.9219 -24.66,26.4024 0,14.9257 10.11,26.1797 24.34,26.1797 14.96,0 22.87,-11.7969 22.87,-23.3672 v -4.5469 h -40.89 c 0,-5.4102 3.69,-18.8242 18.44,-18.8242 6.43,0 13.18,3.4648 16.34,8.875 l 4.63,-4.0117"
         style="fill:#176fc1;fill-opacity:1;fill-rule:nonzero;stroke:none"
         id="path100" />
      <path
         d="m 1954.64,52.043 c 0,3.6797 -0.52,11.4648 -0.52,14.0664 h 6.32 c 0.1,-3.6836 0.21,-7.7891 0.42,-8.7696 h 0.32 c 2.53,5.5235 8.74,10.0665 16.64,10.0665 15.18,0 18.55,-10.6055 18.55,-21.5313 V 16.1211 h -6.32 v 29.4297 c 0,8.1172 -2.21,16.0117 -12.23,16.0117 -9.38,0 -16.86,-6.707 -16.86,-20.4492 V 16.1211 h -6.32 V 52.043"
         style="fill:#176fc1;fill-opacity:1;fill-rule:nonzero;stroke:none"
         id="path102" />
      <path
         d="m 2054.05,23.4766 c -4.74,-5.8399 -10.96,-8.6524 -17.91,-8.6524 -14.97,0 -25.62,11.0352 -25.62,26.2891 0,15.2539 10.65,26.293 25.62,26.293 7.05,0 13.38,-3.1368 18.12,-8.6524 l -5.06,-3.8984 c -3.68,4.1133 -8.01,6.707 -13.06,6.707 -11.91,0 -19.29,-9.1992 -19.29,-20.4492 0,-11.2539 7.38,-20.4453 19.29,-20.4453 5.27,0 9.8,2.8086 13.06,6.9258 l 4.85,-4.1172"
         style="fill:#176fc1;fill-opacity:1;fill-rule:nonzero;stroke:none"
         id="path104" />
      <path
         d="m 2102.12,45.3359 c 0,8.875 -7.48,16.2266 -16.86,16.2266 -13.8,0 -17.7,-13.6328 -17.7,-16.2266 z m 4.85,-19.8046 c -4.95,-7.5665 -12.43,-10.7071 -21.07,-10.7071 -14.86,0 -24.66,10.9219 -24.66,26.4024 0,14.9257 10.11,26.1797 24.34,26.1797 14.97,0 22.87,-11.7969 22.87,-23.3672 v -4.5469 h -40.89 c 0,-5.4102 3.69,-18.8242 18.44,-18.8242 6.43,0 13.17,3.4648 16.34,8.875 l 4.63,-4.0117"
         style="fill:#176fc1;fill-opacity:1;fill-rule:nonzero;stroke:none"
         id="path106" />
      <path
         d="m 2122.72,28.8867 c 2.63,-5.2969 8.42,-8.2187 14.11,-8.2187 5.48,0 11.17,3.4648 11.17,9.1914 0,13.7461 -28.87,4.1172 -28.87,23.1523 0,9.7383 8.64,14.3946 16.66,14.3946 7.9,0 14.01,-3.0274 17.16,-9.4141 l -5.68,-3.4609 c -2.42,4.5468 -5.8,7.0312 -11.48,7.0312 -4.54,0 -10.34,-2.8086 -10.34,-8.0039 0,-13.5313 28.88,-3.0313 28.88,-23.2617 0,-10.2813 -8.32,-15.4727 -17.6,-15.4727 -8.32,0 -15.81,3.2461 -19.6,10.1641 l 5.59,3.8984"
         style="fill:#176fc1;fill-opacity:1;fill-rule:nonzero;stroke:none"
         id="path108" />
    </g>
  </g>
</svg>
