<?xml version="1.0" encoding="UTF-8" standalone="no"?>

<svg
   version="1.1"
   id="svg2"
   width="59.279999"
   height="75.58667"
   viewBox="0 0 59.279999 75.58667"
   xmlns="http://www.w3.org/2000/svg"
   xmlns:svg="http://www.w3.org/2000/svg">
  <defs
     id="defs6" />
  <g
     id="g8"
     transform="matrix(1.3333333,0,0,-1.3333333,0,75.586667)">
    <g
       id="g10"
       transform="scale(0.1)">
      <path
         d="M 444.617,122.285 H 0 V 566.926 H 444.617 V 122.285"
         style="fill:#80cc28;fill-opacity:1;fill-rule:nonzero;stroke:none"
         id="path12" />
      <path
         d="m 407.781,544.688 -125.347,-121.364 5.254,102.203 c 35.82,10.59 98.203,10.547 120.093,19.161"
         style="fill:#ffffff;fill-opacity:1;fill-rule:nonzero;stroke:none"
         id="path14" />
      <path
         d="m 195.559,340.43 65.652,63.008 4.559,117.457 c -22.516,-3.286 -56.207,-14.477 -65.665,-19.2 0,0 -3.875,-161.929 -4.546,-161.265"
         style="fill:#00adef;fill-opacity:1;fill-rule:nonzero;stroke:none"
         id="path16" />
      <path
         d="m 111.352,261.523 c 0,0 61.668,56.368 61.003,57.032 -0.667,0.664 2.54,172.531 2.54,172.531 -25.825,-13.516 -42.118,-23.176 -57.051,-35.805 -0.699,-0.597 -6.492,-193.758 -6.492,-193.758"
         style="fill:#f68712;fill-opacity:1;fill-rule:nonzero;stroke:none"
         id="path18" />
      <path
         d="m 40.3672,193.215 49.7461,47.078 5.1953,195.102 C 54.8359,396.266 -9.45313,301.418 40.3672,193.215"
         style="fill:#fff200;fill-opacity:1;fill-rule:nonzero;stroke:none"
         id="path20" />
      <path
         d="m 422.371,530.078 -121.348,-125.344 102.192,5.243 c 10.601,35.828 10.562,98.218 19.156,120.101"
         style="fill:#176fc1;fill-opacity:1;fill-rule:nonzero;stroke:none"
         id="path22" />
      <path
         d="m 218.137,317.852 63.008,65.664 117.449,4.566 c -3.289,-22.551 -14.485,-56.227 -19.207,-65.68 0,0 -161.914,-3.886 -161.25,-4.55"
         style="fill:#ffffff;fill-opacity:1;fill-rule:nonzero;stroke:none"
         id="path24" />
      <path
         d="m 139.219,233.633 c 0,0 56.367,61.68 57.031,61.015 0.676,-0.671 172.527,2.54 172.527,2.54 -13.504,-25.829 -23.179,-42.11 -35.789,-57.04 -0.593,-0.714 -193.769,-6.515 -193.769,-6.515"
         style="fill:#ffffff;fill-opacity:1;fill-rule:nonzero;stroke:none"
         id="path26" />
      <path
         d="m 70.9336,162.656 47.0744,49.754 195.078,5.188 C 273.977,177.129 179.133,112.832 70.9336,162.656"
         style="fill:#ffffff;fill-opacity:1;fill-rule:nonzero;stroke:none"
         id="path28" />
      <path
         d="m 65.3477,69.3164 c -5.1094,6.8164 -13.2657,10.2852 -21.5391,10.2852 -19.2227,0 -32.8555,-16.6133 -32.8555,-35.1485 0,-19.5898 13.5117,-35.13669 32.8555,-35.13669 10.4648,0 18.8633,4.17969 24.9453,11.83589 l 7.6719,-6.3359 C 68.7539,4.64844 57.5586,0 43.8086,0 19.1094,0 0,18.75 0,44.4531 0,69.3164 18.2617,88.918 43.8086,88.918 c 11.6836,0 23.1211,-3.9375 30.4297,-13.2657 l -8.8906,-6.3359"
         style="fill:#176fc1;fill-opacity:1;fill-rule:nonzero;stroke:none"
         id="path30" />
      <path
         d="M 90.6992,86.7695 H 144.855 V 77.4414 H 100.922 V 50.918 H 141.93 V 41.582 H 100.922 V 11.4648 h 46.125 V 2.14844 H 90.6992 V 86.7695"
         style="fill:#176fc1;fill-opacity:1;fill-rule:nonzero;stroke:none"
         id="path32" />
      <path
         d="m 173.137,49.4727 h 17.273 c 10.227,0 17.278,4.5507 17.278,13.9961 0,9.4414 -7.051,13.9726 -17.278,13.9726 h -17.273 z m -10.239,37.2968 h 25.571 c 15.808,0 30.176,-5.5 30.176,-23.1836 0,-18.5273 -16.079,-23.4296 -28.235,-23.4296 H 173.137 V 2.14844 H 162.898 V 86.7695"
         style="fill:#176fc1;fill-opacity:1;fill-rule:nonzero;stroke:none"
         id="path34" />
      <path
         d="M 235.105,86.7695 H 245.32 V 11.4648 h 39.438 V 2.14844 H 235.105 V 86.7695"
         style="fill:#176fc1;fill-opacity:1;fill-rule:nonzero;stroke:none"
         id="path36" />
      <path
         d="m 340.77,73.8672 h -0.25 L 322.629,32.2656 h 35.176 z m -4.625,12.9023 h 9.609 L 382.383,2.14844 H 370.461 L 361.699,22.9414 H 318.621 L 309.734,2.14844 h -11.558 l 37.969,84.62106"
         style="fill:#176fc1;fill-opacity:1;fill-rule:nonzero;stroke:none"
         id="path38" />
      <path
         d="m 434.758,71.8359 c -3.41,5.3711 -9.492,7.7657 -15.703,7.7657 -9.004,0 -18.364,-4.1914 -18.364,-14.2188 0,-7.7734 4.375,-11.2422 18.125,-15.539 13.379,-4.1993 25.801,-8.4961 25.801,-25.1172 C 444.617,7.88281 429.895,0 414.309,0 404.336,0 393.621,3.22266 387.781,11.6992 l 8.774,7.0508 c 3.648,-6.2109 10.957,-9.43359 18.367,-9.43359 8.762,0 18.738,5.01949 18.738,14.70699 0,10.3907 -7.183,12.1875 -22.515,17.2071 -12.168,3.9453 -21.411,9.1992 -21.411,23.3125 0,16.25 14.243,24.375 29.321,24.375 9.617,0 17.769,-2.6289 24.097,-9.9141 l -8.394,-7.168"
         style="fill:#176fc1;fill-opacity:1;fill-rule:nonzero;stroke:none"
         id="path40" />
    </g>
  </g>
</svg>
